<svg xmlns="http://www.w3.org/2000/svg" width="200" height="43" viewBox="0 0 200 43" fill="none">
<path d="M17.7024 22.7955C17.189 20.756 16.2907 18.7893 13.4778 15.5427C11.2746 12.9933 11.0501 10.6623 11.0501 9.20552C11.0501 7.75911 11.0501 6.8538 11.0501 6.5H6.85765C6.85765 6.69771 6.85765 7.07232 6.85765 7.61343C6.85765 13.0452 7.30686 15.1577 9.19985 17.6863C10.5688 19.4969 13.6383 21.5052 14.7185 24.4397C15.9484 27.7695 15.8094 33.7737 15.3388 36.5C16.5259 36.4584 16.5259 35.8132 16.7933 34.7623C17.2532 32.9204 18.5901 26.3022 17.7024 22.7955Z" fill="#4DAFC9"/>
<path d="M13.6837 25.6611C12.6847 23.0182 10.0459 21.1158 8.5908 19.5938C6.6145 17.5371 6.15835 14.7194 6.16923 13.1666C6.02807 14.4212 5.73485 15.902 4.17116 17.6605C1.57585 20.581 0.750549 22.3498 0.272801 24.1803C-0.541618 27.3373 0.68541 33.2812 1.11979 34.9369C1.36955 35.9138 1.36955 36.4999 2.56401 36.4999C3.75855 36.4999 8.36281 36.4999 8.36281 36.4999C8.36281 36.4999 12.9561 36.4999 14.1615 36.4999C14.1941 36.4999 14.2267 36.4999 14.2592 36.4999C14.6936 34.0524 14.813 28.6536 13.6837 25.6611Z" fill="#8ECAE5"/>
<path d="M43.7726 20.227V20.1587C46.0208 19.3394 47.487 17.808 47.487 15.1549C47.487 13.1163 46.5975 11.4483 44.6914 10.3948C43.0199 9.47795 40.5371 9 37.1942 9H30V33.6292H37.331C39.9507 33.6292 42.0718 33.3268 43.7726 32.6733C46.9103 31.4833 48.4742 29.2399 48.4742 26.2161C48.4742 23.1825 46.9103 21.1439 43.7726 20.227ZM35.425 13.6235H37.0964C38.5236 13.6235 40.0289 13.721 40.9184 14.238C41.8372 14.7452 42.0815 15.5938 42.0815 16.3839C42.0815 18.3932 40.5176 19.2028 38.2987 19.2028H35.4347L35.425 13.6235ZM41.5244 28.5278C40.7033 28.8692 39.374 29.0058 37.4386 29.0058H35.425V22.9192H38.6604C41.5537 22.9192 43.059 23.9043 43.059 26.0502C43.059 27.133 42.6778 28.0499 41.5244 28.5278Z" fill="#fff"/>
<path d="M59.9592 16.5203C54.6124 16.5203 50.6243 20.3342 50.6243 25.26C50.6243 30.1956 54.6124 33.9997 59.9592 33.9997C65.306 33.9997 69.2941 30.1859 69.2941 25.26C69.3038 20.3244 65.3157 16.5203 59.9592 16.5203ZM59.9592 29.5421C57.6035 29.5421 55.8049 27.64 55.8049 25.26C55.8049 22.88 57.6133 20.9779 59.9592 20.9779C62.3051 20.9779 64.1135 22.88 64.1135 25.26C64.1232 27.64 62.3149 29.5421 59.9592 29.5421Z" fill="#fff"/>
<path d="M78.7661 11.6533L73.5855 12.5409V16.8912H70.8584V21.1733H73.5855V27.3282C73.5855 29.9813 74.1623 31.3761 75.0518 32.332C76.1074 33.4538 77.7105 34 79.4113 34C80.8775 34 82.4121 33.5903 83.1941 33.0831V28.9669C82.5099 29.3083 81.5617 29.6497 80.7015 29.6497C79.1376 29.6497 78.7564 28.4206 78.7564 26.7917V21.1831H83.1843V16.901H78.7564V11.6533H78.7661Z" fill="#fff"/>
<path d="M92.7338 11.6533L87.5532 12.5409V16.8912H84.8261V21.1733H87.5532V27.3282C87.5532 29.9813 88.1299 31.3761 89.0194 32.332C90.0751 33.4538 91.6781 34 93.3789 34C94.8451 34 96.3798 33.5903 97.1618 33.0831V28.9669C96.4775 29.3083 95.5294 29.6497 94.6692 29.6497C93.1052 29.6497 92.724 28.4206 92.724 26.7917V21.1831H97.152V16.901H92.724V11.6533H92.7338Z" fill="#fff"/>
<path d="M105.236 9H100.055V33.6195H105.236V9Z" fill="#fff"/>
<path d="M116.389 16.5203C111.756 16.5203 107.592 19.9928 107.592 25.3283C107.592 30.5663 111.58 33.9997 117.103 33.9997C119.321 33.9997 121.843 33.4925 123.476 32.4683V28.1472C121.706 29.3372 119.654 29.981 117.787 29.981C115.402 29.981 113.496 28.9276 112.909 26.6158H124.297C124.365 26.1769 124.394 25.4258 124.394 24.8503C124.404 19.2417 120.514 16.5203 116.389 16.5203ZM112.88 23.358C113.32 21.4559 114.718 20.4707 116.321 20.4707C117.992 20.4707 119.321 21.5632 119.624 23.358H112.88Z" fill="#fff"/>
<path d="M137.268 16.5203C135.157 16.5203 133.387 17.4079 132.087 18.4614L132.019 18.4321V16.9007H126.907V33.6291H132.087V22.3728C133.006 21.6607 134.267 20.9779 135.596 20.9779C136.31 20.9779 136.926 21.1828 137.366 21.69C137.776 22.1679 137.942 22.7825 137.942 24.0407V33.6291H143.123V23.1921C143.123 20.7731 142.683 19.3197 141.657 18.2273C140.611 17.1348 139.037 16.5203 137.268 16.5203Z" fill="#fff"/>
<path d="M154.442 16.5203C149.809 16.5203 145.645 19.9928 145.645 25.3283C145.645 30.5663 149.633 33.9997 155.156 33.9997C157.375 33.9997 159.896 33.4925 161.529 32.4683V28.1472C159.76 29.3372 157.707 29.981 155.84 29.981C153.455 29.981 151.549 28.9276 150.962 26.6158H162.35C162.418 26.1769 162.448 25.4258 162.448 24.8503C162.448 19.2417 158.567 16.5203 154.442 16.5203ZM150.933 23.358C151.373 21.4559 152.771 20.4707 154.374 20.4707C156.045 20.4707 157.375 21.5632 157.678 23.358H150.933Z" fill="#fff"/>
<path d="M169.768 25.2602C169.768 22.7436 171.674 20.8708 174.441 20.8708C176.044 20.8708 177.676 21.4853 179.181 22.4315V17.6325C177.823 16.9497 176.083 16.5107 174.206 16.5107C168.957 16.5107 164.598 20.0125 164.598 25.2895C164.598 30.3226 168.546 33.9999 173.932 33.9999C175.838 33.9999 177.813 33.5902 179.416 32.7124V27.9523C178.018 29.0058 176.141 29.6203 174.509 29.6203C171.704 29.6106 169.768 27.806 169.768 25.2602Z" fill="#fff"/>
<path d="M192.789 24.3725L199.191 16.8911H193.297L187.442 24.0019L187.373 23.9629V9H182.193V33.6292H187.373V25.1236L187.442 25.0846L193.541 33.6292H199.67L192.789 24.3725Z" fill="#fff"/>
</svg>